<?xml version="1.0" standalone="no"?>
<!DOCTYPE svg PUBLIC "-//W3C//DTD SVG 20010904//EN"
 "http://www.w3.org/TR/2001/REC-SVG-20010904/DTD/svg10.dtd">
<svg version="1.0" xmlns="http://www.w3.org/2000/svg"
 width="500.000000pt" height="500.000000pt" viewBox="0 0 500.000000 500.000000"
 preserveAspectRatio="xMidYMid meet">
<metadata>
Created by potrace 1.14, written by Peter Selinger 2001-2017
</metadata>
<g transform="translate(0.000000,500.000000) scale(0.100000,-0.100000)"
fill="#000000" stroke="none">
<path d="M0 2500 l0 -2500 2500 0 2500 0 0 2500 0 2500 -2500 0 -2500 0 0
-2500z m2600 1988 c51 -90 114 -199 140 -243 26 -44 100 -172 165 -285 65
-113 148 -257 185 -320 37 -63 81 -141 99 -172 l32 -58 -219 0 -219 0 -123
213 c-68 116 -130 224 -139 240 -8 15 -18 27 -21 27 -3 0 -34 -51 -70 -112
-35 -62 -97 -170 -138 -240 l-74 -128 -220 0 -219 0 32 58 c18 31 53 93 79
137 26 44 82 141 124 215 43 74 93 160 110 190 18 30 109 187 201 348 93 160
172 292 176 292 3 0 48 -73 99 -162z m-1133 -1430 c101 -100 183 -186 183
-190 0 -4 -88 -8 -196 -8 l-195 0 -47 -45 -47 -44 425 -426 c234 -233 428
-425 433 -425 4 0 6 210 5 468 l-3 467 -60 3 -60 3 -182 182 c-101 100 -183
185 -183 189 0 5 196 8 435 8 l435 0 0 -1127 0 -1128 -892 892 -893 893 235
235 235 235 94 0 95 0 183 -182z m2672 -52 c204 -204 233 -236 222 -250 -12
-14 -49 -16 -278 -16 -250 0 -264 1 -259 18 4 12 -7 31 -37 60 l-43 42 -385
-2 -384 -3 -3 -142 -3 -143 601 -2 600 -3 -790 -790 -790 -790 0 518 0 517
190 0 190 0 0 -50 c0 -27 3 -50 7 -50 10 0 263 253 263 262 0 5 -146 8 -325 8
l-325 0 0 518 c0 285 3 522 7 525 3 4 299 7 657 7 l650 0 235 -234z m-104
-1003 c38 -65 92 -158 121 -208 29 -49 131 -227 228 -395 l176 -305 -802 -3
c-440 -1 -804 0 -807 3 -3 3 78 89 179 190 l185 185 287 0 c201 0 288 3 288
11 0 9 -89 169 -180 322 l-23 39 139 139 c76 76 139 139 140 139 1 0 32 -53
69 -117z m-2856 -27 c73 -74 131 -138 128 -143 -2 -4 -48 -83 -101 -175 -53
-92 -96 -172 -96 -178 0 -7 94 -10 287 -10 l287 0 185 -184 c102 -102 183
-187 180 -191 -3 -3 -366 -4 -807 -3 l-801 3 150 260 c256 442 392 678 413
717 12 21 26 38 31 38 6 0 71 -60 144 -134z"/>
</g>
</svg>
